<svg width="18" height="16" viewBox="0 0 18 16" fill="none" xmlns="http://www.w3.org/2000/svg">
<path d="M16.2188 16H1.78125C0.80625 16 0 15.0947 0 14V2C0 0.905262 0.80625 0 1.78125 0H16.2188C17.1937 0 18 0.905262 18 2V14C18 15.0947 17.1937 16 16.2188 16ZM1.78125 0.842104C1.21875 0.842104 0.75 1.36842 0.75 2V14C0.75 14.6316 1.21875 15.1579 1.78125 15.1579H16.2188C16.7812 15.1579 17.25 14.6316 17.25 14V2C17.25 1.36842 16.7812 0.842104 16.2188 0.842104H1.78125Z" fill="#757575"/>
<path opacity="0.4" d="M8.94346 10.8569C8.84864 10.8569 8.75382 10.8129 8.67797 10.7247L2.68556 3.76051C2.53385 3.58421 2.53385 3.31974 2.68556 3.14343C2.83726 2.96713 3.06482 2.96713 3.21653 3.14343L8.94346 9.77704L14.7842 2.98917C14.9359 2.81286 15.1634 2.81286 15.3151 2.98917C15.4668 3.16547 15.4668 3.42994 15.3151 3.60624L9.20894 10.7247C9.13309 10.8129 9.03827 10.8569 8.94346 10.8569Z" fill="#757575"/>
</svg>
