<svg width="24" height="24" viewBox="0 0 24 24" fill="none" xmlns="http://www.w3.org/2000/svg">
<path d="M8.39208 22.5385V18.8583C8.39206 17.9257 9.19032 17.168 10.1791 17.1622H13.8096C14.8028 17.1622 15.6079 17.9215 15.6079 18.8583V22.5278C15.6079 23.3367 16.2998 23.9941 17.1574 24H19.6343C20.7911 24.0028 21.9016 23.5713 22.7206 22.8008C23.5397 22.0303 24 20.9841 24 19.893V9.439C24 8.55765 23.5858 7.72164 22.869 7.15619L14.4543 0.809121C12.9834 -0.301053 10.8826 -0.26519 9.45523 0.894459L1.22149 7.15619C0.47083 7.70497 0.0221713 8.54346 0 9.439V19.8823C0 22.1564 1.95459 24 4.36569 24H6.78605C7.19895 24.0028 7.59598 23.85 7.88902 23.5757C8.18205 23.3013 8.34685 22.9279 8.34684 22.5385H8.39208Z" fill="#757575"/>
</svg>
