<svg width="24" height="24" viewBox="0 0 24 24" fill="none" xmlns="http://www.w3.org/2000/svg">
<path d="M5.21739 24H0V7.63636H5.21739V24ZM2.60974 5.45455C1.16661 5.45455 0 4.23164 0 2.72618C0 1.22073 1.1687 0 2.60974 0C4.04765 0 5.21739 1.22291 5.21739 2.72618C5.21739 4.23164 4.04765 5.45455 2.60974 5.45455ZM24 24H18.984V16.0364C18.984 14.1371 18.9496 11.6945 16.3763 11.6945C13.7645 11.6945 13.3628 13.7629 13.3628 15.8989V24H8.34783V7.62436H13.1624V9.86182H13.2303C13.9002 8.57455 15.5374 7.21745 17.9791 7.21745C23.0609 7.21745 24 10.6091 24 15.0185V24Z" fill="#757575"/>
</svg>
