<svg width="24" height="24" viewBox="0 0 24 24" fill="none" xmlns="http://www.w3.org/2000/svg">
<path opacity="0.4" d="M0 11.0049C0.06003 13.8391 0.228114 18.6868 0.252126 19.2214C0.337369 20.3646 0.770785 21.5198 1.44552 22.3344C2.38439 23.4776 3.54057 23.9879 5.15298 23.9879C7.38129 24.0001 9.83772 24.0001 12.2233 24.0001C14.6185 24.0001 16.9429 24.0001 18.9059 23.9879C20.4954 23.9879 21.6876 23.4642 22.6145 22.3344C23.2892 21.5198 23.7227 20.3524 23.7839 19.2214C23.8079 18.7717 23.928 13.5094 24 11.0049H0Z" fill="#757575"/>
<path d="M11.0996 16.2241V17.7928C11.0996 18.2946 11.503 18.7019 12.0001 18.7019C12.4971 18.7019 12.9005 18.2946 12.9005 17.7928V16.2241C12.9005 15.7223 12.4971 15.3149 12.0001 15.3149C11.503 15.3149 11.0996 15.7223 11.0996 16.2241Z" fill="#757575"/>
<path d="M13.55 0C15.3521 0 16.83 1.36861 17.0557 3.12878H19.4293C21.9494 3.12878 24 5.19928 24 7.74498V11.9466C24 12.2521 23.8475 12.5369 23.5966 12.7054C21.121 14.3601 18.1819 15.4621 15.0987 15.8924C15.0567 15.8985 15.0159 15.9009 14.9751 15.9009C14.5681 15.9009 14.2043 15.6233 14.1022 15.216C13.8597 14.251 12.9917 13.5758 11.994 13.5758C10.9831 13.5758 10.1247 14.2365 9.85813 15.2208C9.73807 15.6609 9.31906 15.9421 8.86523 15.8815C5.8025 15.4499 2.87544 14.3529 0.404602 12.7054C0.151276 12.5382 0 12.2521 0 11.9466V7.74498C0 5.19928 2.05543 3.12878 4.58269 3.12878H6.94427C7.16998 1.36861 8.64672 0 10.45 0H13.55ZM13.55 1.81835H10.45C9.64202 1.81835 8.96728 2.37598 8.76558 3.12878H15.2332C15.0315 2.37598 14.3568 1.81835 13.55 1.81835Z" fill="#757575"/>
</svg>
