<svg width="40" height="40" viewBox="0 0 40 40" fill="none" xmlns="http://www.w3.org/2000/svg">
<path fill-rule="evenodd" clip-rule="evenodd" d="M20.0002 3.3335C10.7918 3.3335 3.3335 10.7918 3.3335 20.0002C3.3335 27.3752 8.10433 33.6043 14.7293 35.8127C15.5627 35.9585 15.8752 35.4585 15.8752 35.021C15.8752 34.6252 15.8543 33.3127 15.8543 31.9168C11.6668 32.6877 10.5835 30.896 10.2502 29.9585C10.0627 29.4793 9.25016 28.0002 8.54183 27.6043C7.9585 27.2918 7.12516 26.521 8.521 26.5002C9.8335 26.4793 10.771 27.7085 11.0835 28.2085C12.5835 30.7293 14.9793 30.021 15.9377 29.5835C16.0835 28.5002 16.521 27.771 17.0002 27.3543C13.2918 26.9377 9.41683 25.5002 9.41683 19.1252C9.41683 17.3127 10.0627 15.8127 11.1252 14.646C10.9585 14.2293 10.3752 12.521 11.2918 10.2293C11.2918 10.2293 12.6877 9.79183 15.8752 11.9377C17.2085 11.5627 18.6252 11.3752 20.0418 11.3752C21.4585 11.3752 22.8752 11.5627 24.2085 11.9377C27.396 9.771 28.7918 10.2293 28.7918 10.2293C29.7085 12.521 29.1252 14.2293 28.9585 14.646C30.021 15.8127 30.6668 17.2918 30.6668 19.1252C30.6668 25.521 26.771 26.9377 23.0627 27.3543C23.6668 27.8752 24.1877 28.8752 24.1877 30.4377C24.1877 32.6668 24.1668 34.4585 24.1668 35.021C24.1668 35.4585 24.4793 35.9793 25.3127 35.8127C31.896 33.6043 36.6668 27.3543 36.6668 20.0002C36.6668 10.7918 29.2085 3.3335 20.0002 3.3335Z" fill="#727272"/>
</svg>
