<svg width="30" height="30" viewBox="0 0 30 30" fill="none" xmlns="http://www.w3.org/2000/svg">
<path d="M23.1091 29.4003C22.7591 29.4003 22.4741 29.1163 22.4741 28.7663V19.1303C22.4741 15.6463 20.6861 15.6463 20.0121 15.6463C18.1341 15.6463 17.1831 16.8183 17.1831 19.1303V28.7673C17.1831 29.1173 16.8991 29.4013 16.5491 29.4013H11.1001C10.7501 29.4013 10.4661 29.1173 10.4661 28.7673V10.4103C10.4661 10.0603 10.7501 9.77633 11.1001 9.77633H16.5501C16.9001 9.77633 17.1841 10.0603 17.1841 10.4103V11.0943L17.5121 10.8233C18.8021 9.75633 20.3411 9.21533 22.0861 9.21533C24.2431 9.21533 26.0591 9.90433 27.3371 11.2093C28.6871 12.5873 29.4001 14.6393 29.4001 17.1423V28.7673C29.4001 29.1173 29.1151 29.4013 28.7651 29.4013L23.1091 29.4003ZM20.0131 14.3763C21.4071 14.3763 23.7451 14.9943 23.7451 19.1303V28.1323H28.1301V17.1423C28.1301 12.9113 25.9271 10.4853 22.0861 10.4853C18.6561 10.4853 17.1701 13.0753 17.1081 13.1853C16.9961 13.3883 16.7841 13.5143 16.5531 13.5143C16.5011 13.5143 16.4481 13.5063 16.3941 13.4933C16.1121 13.4223 15.9151 13.1713 15.9151 12.8833V11.0463H11.7351V28.1333H15.9151V19.1303C15.9151 16.1533 17.4471 14.3763 20.0131 14.3763Z" fill="#727272"/>
<path d="M1.78002 29.3999C1.43002 29.3999 1.14502 29.1159 1.14502 28.7659V10.4099C1.14502 10.0599 1.43002 9.77588 1.78002 9.77588H7.46502C7.81502 9.77588 8.09902 10.0599 8.09902 10.4099V28.7659C8.09902 29.1159 7.81502 29.3999 7.46502 29.3999H1.78002ZM2.41502 28.1319H6.83002V11.0449H2.41502V28.1319Z" fill="#727272"/>
<path d="M4.5971 8.6391C2.3931 8.6391 0.600098 6.8361 0.600098 4.6201C0.600098 2.4031 2.3931 0.600098 4.5971 0.600098C6.7981 0.600098 8.5901 2.4041 8.5901 4.6211C8.5901 6.8361 6.7981 8.6391 4.5971 8.6391ZM4.5971 1.8661C3.0931 1.8661 1.8701 3.1011 1.8701 4.6201C1.8701 6.1381 3.0931 7.3711 4.5971 7.3711C6.1001 7.3711 7.3221 6.1381 7.3221 4.6201C7.3211 3.1021 6.1001 1.8661 4.5971 1.8661Z" fill="#727272"/>
</svg>
