<svg width="48" height="48" viewBox="0 0 48 48" fill="none" xmlns="http://www.w3.org/2000/svg">
<path d="M23.0537 3.77003C23.605 3.32151 24.3955 3.32151 24.9468 3.77002L28.099 6.33425C28.4306 6.60399 28.8615 6.71945 29.2835 6.65164L33.2955 6.00704C33.9972 5.89429 34.6818 6.28951 34.935 6.95362L36.3827 10.7504C36.535 11.1498 36.8505 11.4652 37.2499 11.6175L41.0466 13.0653C41.7107 13.3185 42.106 14.003 41.9932 14.7048L41.3486 18.7167C41.2808 19.1388 41.3963 19.5697 41.666 19.9013L44.2302 23.0534C44.6787 23.6048 44.6787 24.3952 44.2302 24.9466L41.666 28.0987C41.3963 28.4303 41.2808 28.8612 41.3486 29.2833L41.9932 33.2952C42.106 33.997 41.7107 34.6815 41.0466 34.9347L37.2499 36.3825C36.8505 36.5348 36.535 36.8502 36.3827 37.2496L34.935 41.0464C34.6818 41.7105 33.9972 42.1057 33.2955 41.993L29.2835 41.3484C28.8615 41.2805 28.4306 41.396 28.099 41.6658L24.9468 44.23C24.3955 44.6785 23.605 44.6785 23.0537 44.23L19.9015 41.6658C19.5699 41.396 19.139 41.2805 18.717 41.3484L14.705 41.993C14.0033 42.1057 13.3187 41.7105 13.0655 41.0464L11.6178 37.2496C11.4655 36.8502 11.15 36.5348 10.7506 36.3825L6.95386 34.9347C6.28975 34.6815 5.89453 33.997 6.00728 33.2952L6.65189 29.2833C6.7197 28.8612 6.60423 28.4303 6.33449 28.0987L3.77027 24.9466C3.32175 24.3952 3.32175 23.6048 3.77027 23.0534L6.33449 19.9013C6.60423 19.5697 6.7197 19.1388 6.65189 18.7167L6.00728 14.7048C5.89453 14.003 6.28975 13.3185 6.95386 13.0653L10.7506 11.6175C11.15 11.4652 11.4655 11.1498 11.6178 10.7504L13.0655 6.95362C13.3187 6.28951 14.0033 5.89429 14.705 6.00704L18.717 6.65164C19.139 6.71945 19.5699 6.60399 19.9015 6.33425L23.0537 3.77003Z" fill="url(#paint0_linear_534_484)"/>
<path d="M33 18L21.6562 30L16.5 24.5455" stroke="#F7F9FC" stroke-width="3" stroke-linecap="round" stroke-linejoin="round"/>
<defs>
<linearGradient id="paint0_linear_534_484" x1="42.0002" y1="6.81818" x2="6.81842" y2="42.2727" gradientUnits="userSpaceOnUse">
<stop stop-color="#727272"/>
<stop offset="1" stop-color="#727272"/>
</linearGradient>
</defs>
</svg>
