<svg width="22" height="18" viewBox="0 0 22 18" fill="none" xmlns="http://www.w3.org/2000/svg">
<g clip-path="url(#clip0_529_108)">
<path d="M14.4376 1.38462C15.5731 1.38462 16.8615 1.836 17.5835 2.58785C18.4812 2.41338 19.3283 2.09423 20.0897 1.65185C19.7958 2.55254 19.1686 3.30854 18.3539 3.78623C19.1513 3.69138 19.9148 3.48577 20.6222 3.17769C20.0925 3.951 19.4238 4.63154 18.652 5.17638C18.6589 5.34115 18.6631 5.50731 18.6631 5.67346C18.6631 10.7737 14.8304 16.6154 7.56485 16.6154C5.33525 16.6154 3.11672 16.0152 1.37052 14.9199C1.67896 14.9573 1.99362 14.9753 2.31174 14.9753C4.16236 14.9753 5.86568 14.3585 7.21907 13.3214C5.48878 13.2916 4.02958 12.1749 3.52889 10.6428C3.76886 10.6872 4.01782 10.7121 4.27232 10.7121C4.63055 10.7121 4.98117 10.6657 5.31174 10.5764C3.50468 10.224 2.14369 8.66354 2.14369 6.79362C2.14369 6.77562 2.14369 6.75969 2.14369 6.74308C2.67688 7.03246 3.28477 7.20692 3.93276 7.22769C2.87259 6.53331 2.17619 5.35431 2.17619 4.01469C2.17619 3.30715 2.37052 2.64323 2.71008 2.07554C4.65752 4.40792 7.569 5.94554 10.8525 6.10754C10.7841 5.82508 10.7488 5.52738 10.7488 5.229C10.7488 3.09669 12.255 1.38462 14.4376 1.38462ZM20.6222 3.17769H20.6257ZM14.4376 0C11.7792 0 9.72322 1.90592 9.41478 4.536C7.20939 4.08808 5.20316 2.91046 3.76194 1.18454C3.49984 0.870231 3.11395 0.690923 2.71008 0.690923C2.67412 0.690923 2.63815 0.692308 2.60219 0.695077C2.15959 0.730385 1.76125 0.978231 1.53235 1.36108C1.05448 2.16138 0.801364 3.07869 0.801364 4.01469C0.801364 4.63846 0.913397 5.247 1.12363 5.81538C0.898874 6.066 0.769552 6.39554 0.769552 6.74308V6.79362C0.769552 8.14985 1.30136 9.40777 2.18518 10.3514C2.1347 10.5882 2.14576 10.8381 2.22322 11.0755C2.52889 12.0102 3.08352 12.8146 3.80275 13.428C3.31934 13.536 2.82073 13.5907 2.31174 13.5907C2.04272 13.5907 1.782 13.5755 1.5365 13.545C1.48048 13.5388 1.42515 13.5353 1.36983 13.5353C0.793757 13.5353 0.270243 13.9002 0.0745311 14.4595C-0.139853 15.0715 0.0966611 15.7521 0.644379 16.0955C2.60289 17.3236 5.0607 18 7.56485 18C12.2944 18 15.2315 15.8144 16.8622 13.9812C18.8401 11.7582 19.9909 8.80477 20.0358 5.85346C20.6769 5.31831 21.2426 4.70077 21.7218 4.00985C21.8954 3.77862 21.9985 3.48992 21.9985 3.17769C21.9985 2.70623 21.7654 2.29015 21.4092 2.03954C21.5635 1.50646 21.3864 0.929077 20.9563 0.576692C20.7052 0.371769 20.3982 0.267231 20.0891 0.267231C19.8532 0.267231 19.616 0.328154 19.4023 0.452769C18.9424 0.72 18.4507 0.930462 17.9328 1.08138C16.9812 0.409846 15.69 0 14.4376 0Z" fill="#727272"/>
</g>
<defs>
<clipPath id="clip0_529_108">
<rect width="22" height="18" fill="white"/>
</clipPath>
</defs>
</svg>
